# xmcd CD database file
#
# Track frame offsets:
#	151
#	27250
#	52404
#	74736
#	97698
#	120133
#	149312
#	168201
#	190843
#	217397
#	236623
#	269586
#
# Disc length: 4458 seconds
#
# Revision: 0
# Processed by: cddbd v1.4PL0 Copyright (c) Steve Scherf et al.
# Submitted via: CDex 1.50beta9
#
DISCID=b411680c
DTITLE=Joe Ascione - My Buddy: A Tribute to Buddy Rich
DYEAR=1997
DGENRE=Jazz
TTITLE0=Cottontail
TTITLE1=My Buddy
TTITLE2=J and B'S Bag
TTITLE3=Here's That  Rainy Day
TTITLE4=Limehouse Blues
TTITLE5=Hi Fly
TTITLE6=Nica's Dream
TTITLE7=Straight No Chaser
TTITLE8=Soft Winds
TTITLE9=I Want To Be Happy
TTITLE10=Love For Sale
TTITLE11=Blues #5  (Blues For Kurtchen)
EXTD=YEAR: 1997
EXTT0=
EXTT1=
EXTT2=
EXTT3=
EXTT4=
EXTT5=
EXTT6=
EXTT7=
EXTT8=
EXTT9=
EXTT10=
EXTT11=
PLAYORDER=
